# xmcd
#
# Track frame offsets: 
#        150
#        19627
#        41983
#        61436
#        78611
#        93953
#        108635
#        120527
#        136923
#        153981
#        174679
#
# Disc length: 2595 seconds
#
# Revision: 0
# Processed by: cddbd v1.5.2PL0 Copyright (c) Steve Scherf et al.
# Submitted via: ExactAudioCopy v0.99pb3
#
DISCID=900a210b
DTITLE=Mighty Mike Schermer Band - 1st Set
DYEAR=1999
DGENRE=Blues
TTITLE0=Lonesome Whistle Blues
TTITLE1=Annabelle
TTITLE2=I Want A Little Girl
TTITLE3=No Harm Done
TTITLE4=Mopina
TTITLE5=Keep Talkin'
TTITLE6=Kiss And Make Up
TTITLE7=Need Somebody
TTITLE8=Amy
TTITLE9=Cool Struttin'
TTITLE10=Evil Ways
EXTD=
EXTT0=
EXTT1=
EXTT2=
EXTT3=
EXTT4=
EXTT5=
EXTT6=
EXTT7=
EXTT8=
EXTT9=
EXTT10=
PLAYORDER=
